<svg width="977" height="299" viewBox="0 0 977 299" fill="none" xmlns="http://www.w3.org/2000/svg">
<path fill-rule="evenodd" clip-rule="evenodd" d="M213.5 190.442V298.9H112.728V189.161L0 -3.57628e-06H106.323L167.384 103.334L228.872 -3.57628e-06H326.228L213.5 190.442ZM356.152 298.9L393.227 233.313L398.745 252.509L422.555 212.679L427.524 237.697L466.736 171.902L501.942 233.634L513.837 209.69L535.534 259.385L545.337 238.023L577.632 298.9H647.776L517.114 -3.57628e-06H418.05L287.388 298.9H356.152ZM785.553 199.836L762.922 225.029V298.9H663.858V-3.57628e-06H762.922V108.458L861.132 -3.57628e-06H970.871L851.311 131.516L976.849 298.9H860.278L785.553 199.836Z" fill="url(#paint0_linear_802:69)"/>
<defs>
<linearGradient id="paint0_linear_802:69" x1="488.425" y1="0" x2="488.425" y2="298.9" gradientUnits="userSpaceOnUse">
<stop stop-color="#219653"/>
<stop offset="1" stop-color="#37B96F" stop-opacity="0.72"/>
</linearGradient>
</defs>
</svg>
