<svg width="978" height="301" viewBox="0 0 978 301" fill="none" xmlns="http://www.w3.org/2000/svg">
<path fill-rule="evenodd" clip-rule="evenodd" d="M213.971 299.002V190.544L326.699 0.101559H229.343L167.855 103.436L106.794 0.101559H0.471191L113.199 189.263V299.002H213.971ZM410.408 246.908H523.99L544.059 299.002H648.247L517.585 0.101559H418.521L287.859 299.002H390.339L410.408 246.908ZM763.393 225.131L786.024 199.938L860.749 299.002H977.32L851.782 131.618L971.342 0.101559H861.603L763.393 108.56V0.101559H664.329V299.002H763.393V225.131Z" fill="url(#paint0_linear_220_157)"/>
<path fill-rule="evenodd" clip-rule="evenodd" d="M536.005 259.487L545.808 238.125L578.634 300.002H356.057L393.698 233.414L399.216 252.611L423.026 212.78L427.995 237.798L467.206 172.004L502.413 233.736L514.308 209.791L536.005 259.487Z" fill="white"/>
<defs>
<linearGradient id="paint0_linear_220_157" x1="488.896" y1="0.101562" x2="488.896" y2="299.002" gradientUnits="userSpaceOnUse">
<stop stop-color="#219653"/>
<stop offset="1" stop-color="#37B96F" stop-opacity="0.72"/>
</linearGradient>
</defs>
</svg>
