<svg width="978" height="299" viewBox="0 0 978 299" fill="none" xmlns="http://www.w3.org/2000/svg">
<mask id="path-1-inside-1_801:60" fill="white">
<path fill-rule="evenodd" clip-rule="evenodd" d="M213.971 299.002V190.544L326.699 0.101562H229.343L167.855 103.436L106.794 0.101562H0.470947L113.199 189.263V299.002H213.971ZM573.329 299.002L545.808 247.125L536.005 268.487L514.308 218.791L502.413 242.736L467.206 181.004L427.995 246.798L423.026 221.78L399.216 261.611L393.698 242.414L361.71 299.002H287.859L418.521 0.101562H517.585L648.247 299.002H573.329ZM467.199 99.1656L496.235 174.318H438.163L467.199 99.1656ZM763.393 225.131L786.024 199.938L860.749 299.002H977.32L851.782 131.618L971.342 0.101562H861.603L763.393 108.56V0.101562H664.329V299.002H763.393V225.131Z"/>
</mask>
<path fill-rule="evenodd" clip-rule="evenodd" d="M213.971 299.002V190.544L326.699 0.101562H229.343L167.855 103.436L106.794 0.101562H0.470947L113.199 189.263V299.002H213.971ZM573.329 299.002L545.808 247.125L536.005 268.487L514.308 218.791L502.413 242.736L467.206 181.004L427.995 246.798L423.026 221.78L399.216 261.611L393.698 242.414L361.71 299.002H287.859L418.521 0.101562H517.585L648.247 299.002H573.329ZM467.199 99.1656L496.235 174.318H438.163L467.199 99.1656ZM763.393 225.131L786.024 199.938L860.749 299.002H977.32L851.782 131.618L971.342 0.101562H861.603L763.393 108.56V0.101562H664.329V299.002H763.393V225.131Z" fill="white"/>
<path d="M213.971 190.544L212.25 189.525L211.971 189.996V190.544H213.971ZM213.971 299.002V301.002H215.971V299.002H213.971ZM326.699 0.101562L328.42 1.12032L330.207 -1.89844H326.699V0.101562ZM229.343 0.101562V-1.89844H228.206L227.624 -0.921156L229.343 0.101562ZM167.855 103.436L166.133 104.453L167.849 107.357L169.574 104.458L167.855 103.436ZM106.794 0.101562L108.516 -0.915896L107.935 -1.89844H106.794V0.101562ZM0.470947 0.101562V-1.89844H-3.04914L-1.24711 1.12542L0.470947 0.101562ZM113.199 189.263H115.199V188.712L114.917 188.239L113.199 189.263ZM113.199 299.002H111.199V301.002H113.199V299.002ZM545.808 247.125L547.574 246.188L545.678 242.613L543.99 246.291L545.808 247.125ZM573.329 299.002L571.562 299.939L572.126 301.002H573.329V299.002ZM536.005 268.487L534.172 269.287L535.959 273.381L537.822 269.321L536.005 268.487ZM514.308 218.791L516.141 217.991L514.425 214.061L512.517 217.901L514.308 218.791ZM502.413 242.736L500.675 243.726L502.534 246.986L504.204 243.625L502.413 242.736ZM467.206 181.004L468.944 180.013L467.245 177.033L465.488 179.98L467.206 181.004ZM427.995 246.798L426.033 247.188L427.047 252.295L429.713 247.822L427.995 246.798ZM423.026 221.78L424.988 221.391L423.975 216.294L421.309 220.754L423.026 221.78ZM399.216 261.611L397.294 262.163L398.567 266.593L400.933 262.637L399.216 261.611ZM393.698 242.414L395.62 241.862L394.303 237.28L391.957 241.43L393.698 242.414ZM361.71 299.002V301.002H362.877L363.451 299.986L361.71 299.002ZM287.859 299.002L286.026 298.201L284.802 301.002H287.859V299.002ZM418.521 0.101562V-1.89844H417.212L416.688 -0.699526L418.521 0.101562ZM517.585 0.101562L519.417 -0.699526L518.893 -1.89844H517.585V0.101562ZM648.247 299.002V301.002H651.304L650.079 298.201L648.247 299.002ZM496.235 174.318V176.318H499.151L498.1 173.597L496.235 174.318ZM467.199 99.1656L469.064 98.4448L467.199 93.6162L465.333 98.4448L467.199 99.1656ZM438.163 174.318L436.297 173.597L435.246 176.318H438.163V174.318ZM786.024 199.938L787.621 198.733L786.159 196.795L784.536 198.601L786.024 199.938ZM763.393 225.131L761.905 223.794L761.393 224.364V225.131H763.393ZM860.749 299.002L859.153 300.206L859.753 301.002H860.749V299.002ZM977.32 299.002V301.002H981.32L978.92 297.802L977.32 299.002ZM851.782 131.618L850.302 130.272L849.19 131.495L850.182 132.818L851.782 131.618ZM971.342 0.101562L972.822 1.44691L975.863 -1.89844H971.342V0.101562ZM861.603 0.101562V-1.89844H860.716L860.121 -1.24088L861.603 0.101562ZM763.393 108.56H761.393V113.748L764.876 109.902L763.393 108.56ZM763.393 0.101562H765.393V-1.89844H763.393V0.101562ZM664.329 0.101562V-1.89844H662.329V0.101562H664.329ZM664.329 299.002H662.329V301.002H664.329V299.002ZM763.393 299.002V301.002H765.393V299.002H763.393ZM211.971 190.544V299.002H215.971V190.544H211.971ZM324.978 -0.917196L212.25 189.525L215.692 191.562L328.42 1.12032L324.978 -0.917196ZM229.343 2.10156H326.699V-1.89844H229.343V2.10156ZM169.574 104.458L231.062 1.12428L227.624 -0.921156L166.136 102.413L169.574 104.458ZM105.072 1.11902L166.133 104.453L169.577 102.418L108.516 -0.915896L105.072 1.11902ZM0.470947 2.10156H106.794V-1.89844H0.470947V2.10156ZM114.917 188.239L2.18901 -0.922291L-1.24711 1.12542L111.481 190.286L114.917 188.239ZM115.199 299.002V189.263H111.199V299.002H115.199ZM213.971 297.002H113.199V301.002H213.971V297.002ZM544.041 248.062L571.562 299.939L575.095 298.064L547.574 246.188L544.041 248.062ZM537.822 269.321L547.625 247.959L543.99 246.291L534.187 267.653L537.822 269.321ZM512.475 219.591L534.172 269.287L537.837 267.686L516.141 217.991L512.475 219.591ZM504.204 243.625L516.099 219.681L512.517 217.901L500.621 241.846L504.204 243.625ZM465.469 181.995L500.675 243.726L504.15 241.745L468.944 180.013L465.469 181.995ZM429.713 247.822L468.925 182.028L465.488 179.98L426.277 245.775L429.713 247.822ZM421.064 222.17L426.033 247.188L429.957 246.409L424.988 221.391L421.064 222.17ZM400.933 262.637L424.743 222.806L421.309 220.754L397.499 260.584L400.933 262.637ZM391.775 242.967L397.294 262.163L401.138 261.058L395.62 241.862L391.775 242.967ZM363.451 299.986L395.439 243.398L391.957 241.43L359.969 298.017L363.451 299.986ZM361.71 297.002H287.859V301.002H361.71V297.002ZM289.691 299.803L420.353 0.902651L416.688 -0.699526L286.026 298.201L289.691 299.803ZM418.521 2.10156H517.585V-1.89844H418.521V2.10156ZM515.752 0.902651L646.414 299.803L650.079 298.201L519.417 -0.699526L515.752 0.902651ZM648.247 297.002H573.329V301.002H648.247V297.002ZM498.1 173.597L469.064 98.4448L465.333 99.8864L494.369 175.038L498.1 173.597ZM438.163 176.318H496.235V172.318H438.163V176.318ZM465.333 98.4448L436.297 173.597L440.028 175.038L469.064 99.8864L465.333 98.4448ZM784.536 198.601L761.905 223.794L764.881 226.467L787.512 201.274L784.536 198.601ZM862.346 297.797L787.621 198.733L784.427 201.142L859.153 300.206L862.346 297.797ZM977.32 297.002H860.749V301.002H977.32V297.002ZM850.182 132.818L975.72 300.202L978.92 297.802L853.382 130.418L850.182 132.818ZM969.862 -1.24378L850.302 130.272L853.262 132.963L972.822 1.44691L969.862 -1.24378ZM861.603 2.10156H971.342V-1.89844H861.603V2.10156ZM764.876 109.902L863.086 1.444L860.121 -1.24088L761.911 107.217L764.876 109.902ZM761.393 0.101562V108.56H765.393V0.101562H761.393ZM664.329 2.10156H763.393V-1.89844H664.329V2.10156ZM666.329 299.002V0.101562H662.329V299.002H666.329ZM763.393 297.002H664.329V301.002H763.393V297.002ZM761.393 225.131V299.002H765.393V225.131H761.393Z" fill="#333333" mask="url(#path-1-inside-1_801:60)"/>
<path d="M504 177H433L467.877 81L504 177Z" fill="white"/>
</svg>
